<svg width="320" height="225" viewBox="0 0 320 225" fill="none" xmlns="http://www.w3.org/2000/svg">
<g clip-path="url(#clip0_2484_485)">
<path d="M318.49 222.396H1.51096C0.680123 222.396 0 222.913 0 223.544V223.852C0 224.484 0.679957 225 1.51096 225H318.49C319.319 225 320 224.484 320 223.852V223.544C320 222.913 319.32 222.396 318.49 222.396Z" fill="#D0D6EC"/>
<path d="M110.616 206.84H264.034V2.44312H110.616V206.84Z" fill="#D0D6EC"/>
<path d="M114.246 203.511H260.406V5.5321H114.246V203.511Z" fill="#F1F4FA"/>
<path d="M128.622 46.0034H150.288V24.4574H128.622V46.0034ZM152.631 48.333H126.279V22.1282H152.631V48.333Z" fill="#D0D6EC"/>
<path d="M132.014 28.8253L138.856 42.5097L156.607 14.558L138.309 32.6102L132.014 28.8253Z" fill="#D05C2B"/>
<path d="M128.622 91.7167H150.288V70.1703H128.622V91.7167ZM152.631 94.0461H126.279V67.8413H152.631V94.0461Z" fill="#D0D6EC"/>
<path d="M132.014 74.5378L138.856 88.2222L156.607 60.2705L138.309 78.3229L132.014 74.5378Z" fill="#D05C2B"/>
<path d="M165.504 74.5057H205.65V71.7236H165.504V74.5057Z" fill="#D0D6EC"/>
<path d="M165.504 81.1866H193.677V78.4049H165.504V81.1866Z" fill="#D0D6EC"/>
<path d="M165.504 116.054H205.65V113.273H165.504V116.054Z" fill="#D0D6EC"/>
<path d="M165.504 122.734H205.65V119.953H165.504V122.734Z" fill="#D0D6EC"/>
<path d="M165.504 129.417H192.846V126.634H165.504V129.417Z" fill="#D0D6EC"/>
<path d="M165.504 157.602H205.65V154.821H165.504V157.602Z" fill="#D0D6EC"/>
<path d="M165.504 164.284H205.65V161.502H165.504V164.284Z" fill="#D0D6EC"/>
<path d="M165.504 170.965H192.846V168.182H165.504V170.965Z" fill="#D0D6EC"/>
<path d="M128.622 132.334H150.288V110.788H128.622V132.334ZM152.631 134.663H126.279V108.458H152.631V134.663Z" fill="#D0D6EC"/>
<path d="M128.622 172.951H150.288V151.405H128.622V172.951ZM152.631 175.281H126.279V149.075H152.631V175.281Z" fill="#D0D6EC"/>
<path d="M140.854 -0.00012207V7.59359C140.854 9.99272 142.809 11.9374 145.221 11.9374H229.856C232.034 11.9374 233.8 10.1816 233.8 8.01594V-0.00012207H140.854Z" fill="#D05C2B"/>
<path d="M165.504 29.8597H205.65V27.078H165.504V29.8597Z" fill="#D0D6EC"/>
<path d="M165.504 36.5405H205.65V33.759H165.504V36.5405Z" fill="#D0D6EC"/>
<path d="M165.504 43.2217H192.846V40.4401H165.504V43.2217Z" fill="#D0D6EC"/>
<path d="M218.869 68.4951C218.869 68.4951 220.08 74.5802 219.939 77.0034L231.61 81.0131L233.391 74.8795C233.391 74.8795 228.479 70.9048 225.823 66.5977L218.869 68.4952V68.4951Z" fill="#D98789"/>
<path d="M217.869 71.2539C217.869 71.2539 227.936 69.9756 227.04 63.7531C226.143 57.5304 226.838 53.1748 220.372 53.728C213.906 54.2809 213.002 56.8329 212.794 58.9825C212.585 61.1318 215.227 71.426 217.869 71.2539Z" fill="#E7B2B6"/>
<path d="M227.039 63.7532C227.039 63.7532 224.844 55.6231 215.999 57.462C207.153 59.3014 209.534 50.265 216.963 47.7057C216.963 47.7057 216.683 50.7933 221.575 50.4247C231.841 49.6517 227.706 62.287 227.04 63.753L227.039 63.7532Z" fill="#A55555"/>
<path d="M219.985 217.35L218.397 222.427H202.648C202.648 222.427 206.677 215.58 219.985 217.35Z" fill="#501E1E"/>
<path d="M247.964 217.461L246.559 222.539H232.612C232.612 222.539 236.179 215.691 247.964 217.461Z" fill="#501E1E"/>
<path d="M211.972 131.127L236.228 131.317C236.228 131.317 232.058 177.428 220.24 218.252L205.983 218.631L211.972 131.127H211.972Z" fill="#5E2929"/>
<path d="M222.109 133.317L246.759 130.881C246.759 130.881 253.237 165.529 248.742 218.632H236.534L222.108 133.317H222.109Z" fill="#833333"/>
<path d="M245.871 216.167C244.764 208.906 243.848 200.29 243.344 191.3C243.268 189.925 243.196 188.512 243.133 187.096C243.065 185.537 243.005 183.956 242.954 182.4C242.937 181.866 243.085 181.247 243.228 180.649C243.362 180.094 243.498 179.519 243.487 179.058C243.339 173.142 243.461 167.721 243.569 162.94C243.597 161.686 243.625 160.459 243.646 159.256C243.848 148.384 243.924 142.224 243.921 142.164C243.924 142.224 244.197 148.353 243.995 159.24C243.972 160.443 243.944 161.672 243.916 162.925C243.809 167.703 243.688 173.116 243.835 179.024C243.848 179.539 243.704 180.142 243.565 180.724C243.429 181.295 243.287 181.885 243.303 182.363C243.352 183.918 243.413 185.496 243.482 187.055C243.545 188.468 243.616 189.88 243.692 191.253C244.195 200.23 244.866 208.923 245.97 216.172L245.871 216.167Z" fill="#5E2929"/>
<path d="M243.333 140.368C236.415 140.368 233.41 135.377 233.38 135.325L233.699 135.141C233.714 135.166 235.937 137.725 238.338 139.018C240.768 140.326 243.375 140.368 243.333 140.368H243.333Z" fill="#501E1E"/>
<path d="M170.652 89.4811L169.076 87.0201C169.076 87.0201 168.359 81.5123 162.253 81.013C162.253 81.013 159.738 80.9913 160.503 82.6913C161.267 84.3913 161.214 83.6569 162.241 86.0714C163.266 88.4859 165.291 90.3402 167.176 90.4765L169.68 92.9991L170.652 89.4811Z" fill="#E7B2B6"/>
<path d="M262.342 104.649C262.342 104.649 260.613 116.803 247.951 123.8C247.951 123.8 246.879 119.38 245.375 118.885C245.375 118.885 246.862 111.472 250.383 106.682C250.383 106.682 248.982 105.704 247.157 104.219C245.153 102.595 243.911 101.312 243.911 101.312C243.573 104.631 243.707 110.826 244.016 117.348C244.247 122.256 245.661 126.658 246.615 129.728C246.615 129.728 248.13 132.772 242.238 132.798C241.2 132.802 239.769 132.894 238.085 132.966H238.081C229.178 133.335 212.297 134.155 211.958 131.044C210.754 119.955 207.143 102.905 205.981 96.3561C202.222 103.545 185.724 106.61 185.724 106.61C170.402 100.205 166.598 91.3687 166.598 91.3687C166.837 91.0041 170.749 86.1992 170.749 86.1992C170.749 86.1992 178.379 91.2379 185.274 93.704C185.274 93.704 198.56 85.0813 205.421 77.9648C205.909 77.4596 209.703 76.2487 214.192 75.3955C215.941 75.062 219.825 74.6046 219.825 74.6046C219.825 74.6046 219.92 75.2718 220.151 75.719C220.151 75.719 220.155 75.7259 220.165 75.743C220.172 75.7497 220.175 75.7602 220.186 75.7775C220.442 76.2487 220.94 76.7542 221.674 77.1499L221.694 77.1601C222.081 77.3662 222.534 77.5386 223.053 77.6623C223.579 77.7895 224.174 77.8616 224.838 77.8616H224.859C228.431 77.8549 232.82 76.4169 233.39 74.8798C233.526 74.9005 233.675 74.9243 233.838 74.9486C236.715 75.3441 243.929 75.8291 246.146 77.1566C257.692 84.0699 262.342 104.649 262.342 104.649V104.649Z" fill="#A55555"/>
<path d="M242.239 132.798C241.201 132.831 239.77 132.894 238.085 132.965H238.081C229.179 133.334 212.298 134.155 211.958 131.043C210.87 121.009 207.809 106.094 206.376 98.4948C206.234 97.7472 205.291 97.4984 204.789 98.0727C200.017 103.534 187.991 106.153 186.005 106.554C185.824 106.591 185.635 106.571 185.466 106.499C172.578 101.043 167.948 93.8829 166.866 91.8983C166.693 91.5807 166.725 91.1934 166.95 90.9094C167.69 89.9682 169.379 87.8848 170.234 86.8327C170.525 86.4738 171.039 86.3899 171.432 86.6379C173.399 87.8842 179.301 91.4889 184.843 93.5465C185.116 93.6475 185.419 93.6107 185.661 93.4509C187.891 91.9786 199.252 84.363 205.422 77.9647C205.87 77.5004 209.107 76.4409 213.11 75.6106C213.669 75.4944 214.2 75.9134 214.209 76.4823C215.144 127.02 237.362 119.767 241.86 117.775C242.309 117.576 242.835 117.763 243.051 118.2C243.106 118.311 243.138 118.432 243.145 118.556C243.388 123.391 244.22 127.817 246.241 129.953C246.241 129.953 248.766 132.584 242.239 132.797L242.239 132.798Z" fill="#A04F4F"/>
<path d="M245.936 120.373L245.021 121.078C245.021 121.078 240.798 117.398 235.861 121.054C235.861 121.054 233.948 122.701 235.661 123.478C237.374 124.255 236.842 123.737 239.23 124.879C241.618 126.023 244.383 126.084 245.897 124.941L247.571 123.66L245.936 120.373Z" fill="#E7B2B6"/>
<path d="M245.501 118.321L244.462 119.826L246.866 125.848L249.809 122.689L245.501 118.321Z" fill="#D0D6EC"/>
<path d="M170.75 86.1976L168.964 85.3342L164.335 92.2519L168.091 93.7929L170.75 86.1976Z" fill="#D0D6EC"/>
<path d="M58.0859 212.442L60.9479 219.054L64.764 218.594L64.0869 208.036L58.0859 212.442Z" fill="#E7B2B6"/>
<path d="M91.1885 214.391L95.5933 220.102L99.18 218.727L95.9201 208.655L91.1885 214.391Z" fill="#E7B2B6"/>
<path d="M100.933 102.191C100.9 102.141 100.863 102.093 100.823 102.048C100.355 101.341 99.3377 98.8079 99.3377 98.8079C99.3377 98.8079 95.9982 105.28 96.3129 105.478L96.4407 105.558L97.4816 106.918L98.6975 106.49C98.7755 106.471 98.8516 106.444 98.9249 106.409C99.1461 106.308 99.3416 106.145 99.4807 105.926L100.952 103.607C101.236 103.162 101.209 102.606 100.933 102.191V102.191Z" fill="#E7B2B6"/>
<path d="M68.8539 62.8974C67.6426 60.7305 65.514 58.4571 58.4574 60.8243C51.401 63.1923 54.1425 67.4587 56.0707 74.4163C56.6352 76.4538 57.9937 77.6152 59.6315 78.2403C59.2115 81.6641 56.6071 87.2956 56.6071 87.2956H65.8396C66.6997 85.2223 67.1886 80.5299 67.3645 78.532C68.4635 78.3342 69.179 78.1266 69.179 78.1266C72.0371 77.1025 70.0652 65.0639 68.8539 62.897V62.8974Z" fill="#E7B2B6"/>
<path d="M49.473 134.106L64.738 137.171V211.946L57.1058 213.04C57.1058 213.04 43.5644 160.213 49.473 134.106Z" fill="#833333"/>
<path d="M48.4873 105.684C48.4873 105.684 46.1935 101.346 46.2602 96.6086C46.3196 101.188 48.4873 105.287 48.4873 105.287C48.4873 105.287 49.5211 112.298 49.5064 119.725C49.4842 112.449 48.4873 105.684 48.4873 105.684V105.684Z" fill="#A55555"/>
<path d="M83.5418 97.8499L88.1584 87.5663L102.9 89.8618L95.5141 108.409L80.6797 105.562L83.5418 97.8499Z" fill="#D0D6EC"/>
<path d="M84.3189 97.8629L88.5007 88.5481L101.854 90.6273L95.1634 107.428L81.7266 104.849L84.3189 97.8629Z" fill="white"/>
<path d="M60.5918 218.495L61.7922 222.443H73.7024C73.7024 222.443 70.6559 217.118 60.592 218.495H60.5918Z" fill="#D35C2B"/>
<path d="M97.8454 107.491C96.1223 115.448 86.9815 116.305 86.9815 116.305C84.3058 115.995 81.3133 115.278 78.3783 114.128C78.4119 114.314 78.4444 114.497 78.4765 114.681C80.0822 123.938 80.2155 131.925 79.0107 132.987C75.8091 135.801 55.7257 137.747 50.6971 137.183C45.6671 136.619 47.0036 134.441 47.0036 134.441C51.558 126.59 48.4793 105.685 48.4793 105.685C48.4793 105.685 38.3853 87.9079 55.4973 84.1344C59.2888 83.2974 64.7302 83.5156 68.1325 85.6876C68.1325 85.6876 77.5279 84.5157 87.1427 104.84C91.9503 102.833 96.6468 105.566 96.6468 105.566L97.8456 107.491H97.8454Z" fill="#A55555"/>
<path d="M94.04 218.495L95.2402 222.443H107.151C107.151 222.443 104.104 217.118 94.0402 218.495H94.04Z" fill="#D35C2B"/>
<path d="M50.7041 137.171L77.2496 133.933L99.0225 212.493L89.605 214.869C89.605 214.869 53.905 179.417 50.7041 137.171V137.171Z" fill="#A55555"/>
<path d="M99.0245 212.697L93.3147 214.137L89.6068 215.074C89.6068 215.074 53.9054 179.621 50.7031 137.376L67.9836 134.898L77.1534 133.584L99.0243 212.698L99.0245 212.697Z" fill="#A55555"/>
<path d="M66.5177 84.8555C66.5177 84.8555 48.5226 97.339 60.237 124.303C60.237 124.303 62.8808 132.953 77.2501 133.933C77.4319 133.945 67.6646 136.024 67.8825 136.038C65.9731 136.113 51.6849 137.294 50.695 137.183C45.6686 136.618 47.0019 134.441 47.0019 134.441C51.5593 126.591 48.4793 105.683 48.4793 105.683C48.4793 105.683 38.3858 87.9076 55.4962 84.1319C57.3463 83.724 59.5883 83.5699 61.7931 83.7681C63.9612 83.8406 66.5175 84.8555 66.5175 84.8555H66.5177Z" fill="#A04F4F"/>
<path d="M94.8928 213.74C91.4493 206.65 87.7704 198.112 84.3947 189.061C83.8785 187.676 83.3563 186.25 82.8419 184.821C82.2752 183.245 81.7106 181.644 81.1643 180.066C80.9767 179.523 80.9313 178.843 80.8878 178.187C80.847 177.575 80.8048 176.942 80.6463 176.474C78.613 170.459 77.0138 164.869 75.6033 159.937C75.233 158.643 74.8711 157.378 74.5108 156.137C71.2593 144.937 69.3773 138.602 69.3555 138.541C69.3779 138.602 71.6059 144.797 74.8624 156.011C75.2223 157.252 75.5846 158.519 75.9549 159.812C77.3644 164.74 78.962 170.324 80.9922 176.33C81.169 176.853 81.213 177.517 81.256 178.157C81.2974 178.785 81.341 179.433 81.5092 179.919C82.0545 181.495 82.6182 183.093 83.185 184.668C83.6984 186.096 84.2201 187.521 84.7356 188.904C88.1066 197.942 91.5588 206.636 94.9964 213.713L94.8926 213.74H94.8928Z" fill="#833333"/>
<path d="M60.1763 88.122C74.3221 67.4128 67.6916 60.1246 67.6916 60.1246C66.9456 58.0984 53.9564 58.6055 51.7507 64.7986C49.9615 69.821 44.7954 79.4043 44.7954 79.4043C24.3602 107.602 28.0533 121.935 28.0533 121.935L31.8535 121.644C31.883 120.491 31.9938 119.219 32.3004 118.665V121.61L46.7184 120.498C46.8329 117.613 47.2132 112.488 47.2132 112.488L48.5186 120.2L52.428 119.826C51.6256 103.725 55.0661 95.819 56.0839 93.8593C55.2101 102.81 59.5668 117.407 59.5668 117.407L60.1909 117.268L58.7764 109.97L60.5861 117.179L62.3404 116.783C58.1164 102.102 59.0839 92.7101 60.1765 88.1218L60.1763 88.122Z" fill="#D35C2B"/>
<path d="M92.3989 88.2263L91.791 89.6781L96.8382 90.4434L97.4824 89.0182L92.3989 88.2263Z" fill="#D35C2B"/>
<path d="M98.633 94.6526L88.1985 93.0014C88.0087 92.9713 87.8784 92.7926 87.9087 92.6041C87.9388 92.4154 88.1184 92.2858 88.3084 92.3155L98.7427 93.9667C98.9325 93.9968 99.0632 94.1755 99.0329 94.3644C99.0024 94.5525 98.8229 94.6827 98.633 94.6526Z" fill="#D0D6EC"/>
<path d="M98.089 95.6811L87.6545 94.0302C87.465 93.9998 87.3344 93.8212 87.3647 93.6327C87.3946 93.4439 87.5747 93.3143 87.7643 93.3443L98.199 94.9952C98.3883 95.0254 98.5191 95.204 98.4888 95.3927C98.4587 95.5815 98.279 95.7111 98.089 95.6811Z" fill="#D0D6EC"/>
<path d="M90.88 95.6035L87.2836 95.0346C87.0942 95.0044 86.9635 94.8258 86.9936 94.6371C87.0239 94.4483 87.2037 94.3187 87.3935 94.3487L90.9895 94.9178C91.1793 94.9479 91.3096 95.1266 91.2795 95.3155C91.2492 95.5038 91.0696 95.6334 90.88 95.6035Z" fill="#D0D6EC"/>
<path d="M92.8048 95.9079L92.1018 95.7968C91.9123 95.7667 91.7815 95.5876 91.812 95.3991C91.8419 95.2106 92.0216 95.0808 92.2116 95.1109L92.9146 95.222C93.1043 95.2521 93.2347 95.4308 93.2046 95.6197C93.1743 95.8082 92.9946 95.9381 92.8048 95.9079Z" fill="#D0D6EC"/>
<path d="M95.798 96.3816L93.8805 96.078C93.6907 96.0481 93.56 95.8692 93.5903 95.6805C93.6208 95.4922 93.8003 95.3622 93.99 95.3921L95.9079 95.6959C96.0973 95.7256 96.228 95.9043 96.1979 96.0932C96.1676 96.2817 95.9879 96.4115 95.798 96.3816Z" fill="#D0D6EC"/>
<path d="M93.31 99.0551L92.607 98.944C92.4174 98.9139 92.2869 98.7352 92.3168 98.5465C92.3473 98.3578 92.5271 98.2281 92.7167 98.2581L93.4197 98.3696C93.6095 98.3995 93.7398 98.5784 93.7097 98.7669C93.6794 98.9554 93.4997 99.0852 93.31 99.0551Z" fill="#D0D6EC"/>
<path d="M96.3026 99.5289L94.3847 99.2253C94.1954 99.1952 94.065 99.0165 94.0951 98.8276C94.1251 98.6393 94.3051 98.5092 94.4947 98.5394L96.4125 98.8429C96.6019 98.8731 96.7326 99.0517 96.7023 99.2403C96.6722 99.429 96.4926 99.5586 96.3026 99.5289Z" fill="#D0D6EC"/>
<path d="M93.3143 214.137L89.6064 215.073C89.6064 215.073 53.9063 179.203 50.7041 136.956L69.6622 135.628C69.6622 135.628 65.6569 138.161 72.0087 155.787C78.4184 173.573 79.6978 180.405 79.6978 180.405C79.6978 180.405 82.8667 191.386 93.3145 214.137H93.3143Z" fill="#A04F4F"/>
<path d="M100.925 89.5541L96.9782 88.973L92.5615 88.2522C92.5615 88.2522 92.579 88.2782 92.6134 88.2609L97.0093 88.9454L100.925 89.5543V89.5541Z" fill="#E7B2B6"/>
<path d="M97.8451 107.491C96.1219 115.448 86.9811 116.305 86.9811 116.305C84.3054 115.995 81.3129 115.278 78.3779 114.128C78.4116 114.314 76.0456 110.643 76.6593 109.829C77.5374 108.664 84.4676 115.07 86.4191 114.683C88.3705 114.294 97.8451 107.491 97.8451 107.491Z" fill="#A04F4F"/>
<path d="M159.261 75.3118L162.218 73.7599L178.094 103.683L175.138 105.234L159.261 75.3118Z" fill="#D05C2B"/>
<path d="M158.976 71.2106L162.218 73.76L159.261 75.3119L158.976 71.2106Z" fill="#F0D170"/>
</g>
<defs>
<clipPath id="clip0_2484_485">
<rect width="320" height="225" fill="white"/>
</clipPath>
</defs>
</svg>
