<svg width="318" height="91" viewBox="0 0 318 91" fill="none" xmlns="http://www.w3.org/2000/svg">
<path fill-rule="evenodd" clip-rule="evenodd" d="M87.7169 12.6186L74.6416 0L35.8864 63.9323L12.6574 41.106L0 53.4836L36.1645 89.4918L87.7169 12.6186Z" fill="#D90504"/>
<path d="M79.1216 51.1054L72.5667 90.443H64.2189L70.7738 51.1054H79.1216Z" fill="#D90504"/>
<path d="M105.481 62.534C105.545 60.9334 105.076 59.6977 104.073 58.8269C103.084 57.9562 101.586 57.5208 99.5815 57.5208C98.2191 57.5208 97.0366 57.7129 96.0341 58.097C95.0316 58.4684 94.2283 58.987 93.6242 59.6529C93.033 60.3059 92.6667 61.0614 92.5253 61.9194C92.384 62.6237 92.4289 63.2383 92.6603 63.7633C92.9045 64.2883 93.2836 64.7429 93.7978 65.1271C94.3247 65.4984 94.9481 65.825 95.6678 66.1067C96.3876 66.3756 97.1523 66.6061 97.962 66.7982L101.355 67.6433C103.013 68.0275 104.504 68.5397 105.828 69.1799C107.165 69.8202 108.283 70.6077 109.182 71.5425C110.095 72.4773 110.738 73.5785 111.11 74.8462C111.483 76.1139 111.534 77.5673 111.265 79.2064C110.853 81.6138 109.896 83.701 108.392 85.4681C106.888 87.2225 104.915 88.5862 102.473 89.5594C100.031 90.5198 97.2037 91 93.9905 91C90.8031 91 88.1104 90.5134 85.9126 89.5402C83.7148 88.567 82.1147 87.1264 81.1122 85.2185C80.1225 83.2977 79.8269 80.9223 80.2253 78.0924H88.3032C88.1618 79.4113 88.3546 80.5125 88.8816 81.3961C89.4214 82.2668 90.2247 82.9263 91.2915 83.3745C92.3583 83.8099 93.6114 84.0276 95.0509 84.0276C96.4775 84.0276 97.7435 83.8227 98.8489 83.4129C99.967 83.0031 100.873 82.4333 101.567 81.7034C102.261 80.9735 102.685 80.1348 102.84 79.1872C102.994 78.3036 102.859 77.5609 102.435 76.9591C102.011 76.3572 101.329 75.845 100.391 75.4225C99.4658 74.9871 98.3155 74.6029 96.9402 74.27L92.8145 73.1944C89.6271 72.3876 87.2172 71.1263 85.5849 69.4104C83.9526 67.6945 83.3678 65.3832 83.8305 62.4764C84.2418 60.0946 85.2379 58.0138 86.8187 56.2339C88.4125 54.4411 90.4175 53.0518 92.8338 52.0658C95.263 51.067 97.917 50.5676 100.796 50.5676C103.726 50.5676 106.201 51.0734 108.218 52.085C110.236 53.0838 111.708 54.4795 112.633 56.2723C113.559 58.065 113.842 60.1523 113.482 62.534H105.481Z" fill="#D90504"/>
<path d="M118.904 57.9626L120.061 51.1054H152.488L151.331 57.9626H139.243L133.845 90.443H125.594L130.992 57.9626H118.904Z" fill="#D90504"/>
<path d="M188.954 71.312C188.234 75.5121 186.84 79.0784 184.771 82.0107C182.714 84.9431 180.202 87.1712 177.233 88.6951C174.276 90.2189 171.089 90.9808 167.67 90.9808C164.084 90.9808 160.993 90.1677 158.397 88.5414C155.814 86.9151 153.943 84.5654 152.787 81.4921C151.63 78.4061 151.412 74.6862 152.131 70.3324C152.825 66.1195 154.207 62.5468 156.276 59.6144C158.346 56.6692 160.871 54.4283 163.853 52.8917C166.835 51.3423 170.041 50.5676 173.473 50.5676C177.033 50.5676 180.105 51.3871 182.689 53.0262C185.285 54.6652 187.155 57.0342 188.299 60.133C189.455 63.2191 189.674 66.9454 188.954 71.312ZM180.645 70.3324C181.095 67.6305 181.076 65.364 180.587 63.5328C180.112 61.6889 179.238 60.2931 177.965 59.3455C176.693 58.3979 175.086 57.9242 173.145 57.9242C171.038 57.9242 169.103 58.4492 167.342 59.4992C165.594 60.5492 164.116 62.073 162.908 64.0707C161.713 66.0555 160.884 68.4692 160.421 71.312C159.959 74.0267 159.971 76.2932 160.46 78.1116C160.961 79.9299 161.854 81.3065 163.14 82.2412C164.438 83.1632 166.051 83.6242 167.979 83.6242C170.074 83.6242 171.989 83.112 173.724 82.0876C175.472 81.0504 176.943 79.5457 178.139 77.5737C179.334 75.5889 180.169 73.1752 180.645 70.3324Z" fill="#D90504"/>
<path d="M191.938 90.443L198.493 51.1054H214.07C217.052 51.1054 219.507 51.6304 221.435 52.6804C223.375 53.7304 224.738 55.2223 225.522 57.1558C226.319 59.0766 226.505 61.3431 226.081 63.9554C225.644 66.5677 224.699 68.8086 223.247 70.6781C221.807 72.5477 219.931 73.9883 217.617 74.9999C215.317 75.9987 212.65 76.4981 209.617 76.4981H199.187L200.343 69.8138H209.404C210.998 69.8138 212.361 69.5961 213.492 69.1607C214.623 68.7253 215.516 68.0723 216.171 67.2015C216.84 66.3308 217.277 65.2487 217.482 63.9554C217.701 62.6365 217.624 61.5352 217.251 60.6517C216.878 59.7553 216.204 59.0766 215.227 58.6156C214.25 58.1418 212.965 57.9049 211.371 57.9049H205.741L200.285 90.443H191.938ZM216.229 72.5413L223.073 90.443H213.858L207.226 72.5413H216.229Z" fill="#D90504"/>
<path d="M242.786 51.1054L236.231 90.443H227.883L234.438 51.1054H242.786Z" fill="#D90504"/>
<path d="M249.905 90.443H240.959L261.145 51.1054H271.902L278.958 90.443H270.013L265.212 60.0946H264.904L249.905 90.443ZM251.948 74.9807H273.078L271.96 81.4729H250.83L251.948 74.9807Z" fill="#D90504"/>
<path d="M283.711 90.443L290.266 51.1054H305.843C308.825 51.1054 311.273 51.6752 313.188 52.8149C315.116 53.9417 316.466 55.5104 317.237 57.5208C318.021 59.5184 318.201 61.8233 317.777 64.4356C317.34 67.0607 316.389 69.372 314.923 71.3696C313.471 73.3544 311.582 74.9039 309.255 76.0179C306.929 77.132 304.243 77.689 301.197 77.689H291.268L292.367 71.0239H300.946C302.566 71.0239 303.947 70.7486 305.091 70.1979C306.248 69.6345 307.167 68.8598 307.848 67.8738C308.529 66.875 308.973 65.7289 309.178 64.4356C309.397 63.1167 309.326 61.9706 308.966 60.9974C308.606 60.0242 307.944 59.2687 306.98 58.7309C306.029 58.1803 304.75 57.9049 303.144 57.9049H297.514L292.058 90.443H283.711Z" fill="#D90504"/>
</svg>
